<?xml version="1.0" encoding="UTF-8" standalone="no"?>
<svg width="22px" height="13px" viewBox="0 0 22 13" version="1.1" xmlns="http://www.w3.org/2000/svg" xmlns:xlink="http://www.w3.org/1999/xlink">
    <!-- Generator: Sketch 39.1 (31720) - http://www.bohemiancoding.com/sketch -->
    <title>logo</title>
    <desc>Created with Sketch.</desc>
    <defs></defs>
    <g id="Page-1" stroke="none" stroke-width="1" fill="none" fill-rule="evenodd">
        <g id="1" transform="translate(-17.000000, -40.000000)" fill="#F26B00">
            <g id="logo" transform="translate(17.000000, 40.000000)">
                <g id="Group">
                    <path d="M4.15373913,2.04550265 C4.15373913,3.17215754 3.22469565,4.08510703 2.07895652,4.08510703 C0.932869565,4.08510703 0.00408695652,3.17215754 0.00408695652,2.04550265 C0.00408695652,0.918847757 0.932782609,0.00589826916 2.07886957,0.00589826916 C3.22473913,0.00589826916 4.15373913,0.918847757 4.15373913,2.04550265" id="Shape"></path>
                    <path d="M19.9208696,11.250521 L8.30973913,11.250521 C6.77713043,11.250521 5.53034783,10.0249633 5.53034783,8.5183829 C5.53034783,7.01180254 6.77721739,5.78611657 8.30973913,5.78611657 L13.5610435,5.78611657 C14.466087,5.78611657 15.2024783,5.06216814 15.2024783,4.17238432 C15.2024783,3.28260049 14.4660435,2.55865207 13.5610435,2.55865207 L2.07869565,2.55865207 C1.76447826,2.55865207 1.50973913,2.30818933 1.50973913,1.99938502 C1.50973913,1.69049523 1.76452174,1.44007524 2.07865217,1.44007524 L13.5609565,1.44007524 C15.0935652,1.44007524 16.3402174,2.66580396 16.3402174,4.17234158 C16.3402174,5.67887919 15.0935217,6.90447969 13.5609565,6.90447969 L8.30965217,6.90447969 C7.40443478,6.90447969 6.66808696,7.62842812 6.66808696,8.5183829 C6.66808696,9.40808124 7.40452174,10.1319869 8.30965217,10.1319869 L19.9208696,10.1319869 C20.235087,10.1319869 20.4898261,10.3824497 20.4898261,10.691254 C20.4898261,11.000101 20.2351304,11.250521 19.920913,11.250521 L19.9208696,11.250521 Z" id="Shape"></path>
                    <path d="M17.8462609,10.6913395 C17.8462609,9.56468456 18.7749565,8.65173508 19.9210435,8.65173508 C21.0671304,8.65173508 21.9958261,9.56468456 21.9958261,10.6913395 C21.9958261,11.8179943 21.0671304,12.7309438 19.9210435,12.7309438 C18.7749565,12.7309438 17.8462609,11.8179943 17.8462609,10.6913395" id="Shape"></path>
                </g>
            </g>
        </g>
    </g>
</svg>